<?xml version="1.0" encoding="iso-8859-1"?>
<!-- Generator: Adobe Illustrator 18.0.0, SVG Export Plug-In . SVG Version: 6.00 Build 0)  -->
<!DOCTYPE svg PUBLIC "-//W3C//DTD SVG 1.1//EN" "http://www.w3.org/Graphics/SVG/1.1/DTD/svg11.dtd">
<svg xmlns="http://www.w3.org/2000/svg" xmlns:xlink="http://www.w3.org/1999/xlink" version="1.1" id="Capa_1" x="0px" y="0px" viewBox="150 0 260.397 260.397" style="enable-background:new 0 0 260.397 260.397;" xml:space="preserve" width="512px" height="512px">
<g>
	<path d="M151.719,37.683c-0.936-0.936-2.205-1.461-3.529-1.461s-2.593,0.526-3.529,1.462l-27.248,27.255   c-0.017,0.017-0.028,0.038-0.046,0.056c-0.204,0.21-0.391,0.436-0.555,0.68c-0.037,0.055-0.068,0.113-0.103,0.169   c-0.122,0.197-0.23,0.402-0.324,0.615c-0.031,0.071-0.065,0.141-0.093,0.214c-0.095,0.247-0.177,0.5-0.233,0.764l-9.189,43.54   L1.463,216.393c-1.948,1.949-1.948,5.108,0,7.057l35.485,35.485c0.974,0.974,2.252,1.461,3.529,1.461   c1.277,0,2.554-0.487,3.529-1.461l105.412-105.412l43.542-9.188c0.265-0.056,0.518-0.138,0.765-0.234   c0.071-0.027,0.14-0.06,0.21-0.091c0.215-0.094,0.421-0.203,0.618-0.325c0.056-0.035,0.114-0.065,0.169-0.103   c0.242-0.164,0.468-0.35,0.677-0.553c0.018-0.018,0.04-0.029,0.059-0.048l27.254-27.25c0.935-0.936,1.461-2.205,1.461-3.529   s-0.526-2.593-1.461-3.529L151.719,37.683z M40.477,248.35l-28.429-28.429l99.398-99.407l14.216,14.217l14.216,14.217   L40.477,248.35z M148.553,143.506l-31.665-31.665l7.035-33.336l57.967,57.967L148.553,143.506z M191.929,132.397l-63.931-63.931   L148.19,48.27l63.935,63.934L191.929,132.397z" fill="#d71e3a"/>
	<path d="M29.776,178.738c1.277,0,2.554-0.487,3.529-1.462l35.492-35.492c1.949-1.948,1.948-5.108,0-7.057   c-1.949-1.949-5.109-1.948-7.057,0.001l-35.492,35.492c-1.949,1.948-1.948,5.108,0,7.057   C27.222,178.251,28.499,178.738,29.776,178.738z" fill="#d71e3a"/>
	<path d="M206.674,58.711c1.277,0,2.554-0.487,3.529-1.461l17.746-17.744c1.949-1.949,1.949-5.108,0-7.057   c-1.95-1.949-5.108-1.949-7.057-0.001l-17.746,17.744c-1.949,1.949-1.949,5.108,0,7.057   C204.12,58.223,205.397,58.711,206.674,58.711z" fill="#d71e3a"/>
	<path d="M255.406,77.566l-25.099-0.004c-0.001,0-0.001,0-0.001,0c-2.755,0-4.99,2.234-4.99,4.989c0,2.756,2.234,4.99,4.989,4.991   l25.099,0.004c0.001,0,0.001,0,0.001,0c2.755,0,4.99-2.233,4.99-4.989C260.395,79.801,258.161,77.567,255.406,77.566z" fill="#d71e3a"/>
	<path d="M177.843,35.076c2.755-0.001,4.989-2.235,4.989-4.99L182.829,4.99c0-2.756-2.235-4.99-4.991-4.99   c-2.755,0-4.989,2.235-4.989,4.99l0.003,25.096C172.852,32.842,175.086,35.076,177.843,35.076z" fill="#d71e3a"/>
</g>
<g>
</g>
<g>
</g>
<g>
</g>
<g>
</g>
<g>
</g>
<g>
</g>
<g>
</g>
<g>
</g>
<g>
</g>
<g>
</g>
<g>
</g>
<g>
</g>
<g>
</g>
<g>
</g>
<g>
</g>
</svg>
