<?xml version="1.0" standalone="no"?>
<!DOCTYPE svg PUBLIC "-//W3C//DTD SVG 20010904//EN"
 "http://www.w3.org/TR/2001/REC-SVG-20010904/DTD/svg10.dtd">
<svg version="1.0" xmlns="http://www.w3.org/2000/svg"
 width="700.000000pt" height="700.000000pt" viewBox="0 0 700.000000 700.000000"
 preserveAspectRatio="xMidYMid meet">
<metadata>
Created by potrace 1.11, written by Peter Selinger 2001-2013
</metadata>
<g transform="translate(0.000000,700.000000) scale(0.100000,-0.100000)"
fill="#000000" stroke="none">
<path d="M4720 6983 c-19 -10 -43 -33 -54 -52 -18 -32 -20 -55 -20 -375 -1
-188 2 -361 7 -386 11 -66 51 -102 120 -108 49 -4 57 -2 90 28 20 18 40 45 45
62 4 16 7 193 7 392 -1 326 -3 366 -18 389 -39 60 -116 81 -177 50z"/>
<path d="M5993 6159 c-42 -12 -538 -506 -560 -557 -48 -114 88 -226 193 -158
30 20 499 489 518 518 67 103 -32 231 -151 197z"/>
<path d="M3944 6018 c-22 -5 -137 -114 -402 -378 -204 -204 -382 -385 -395
-403 -21 -28 -35 -73 -52 -168 -3 -13 -28 -132 -56 -264 -28 -132 -53 -251
-55 -265 -3 -14 -14 -63 -24 -110 -10 -47 -21 -96 -24 -110 -2 -14 -17 -81
-31 -150 -15 -69 -28 -131 -29 -138 -1 -7 -646 -658 -1434 -1445 -1556 -1557
-1461 -1455 -1433 -1540 8 -24 149 -172 504 -526 271 -271 501 -497 511 -503
29 -16 74 -20 109 -9 23 8 455 433 1462 1441 786 786 1437 1430 1445 1430 8 0
78 14 155 31 77 17 153 32 169 35 15 2 35 6 45 8 20 7 466 101 523 111 16 3
58 12 95 21 38 9 84 18 103 21 82 11 110 35 475 401 198 198 371 371 383 385
29 31 43 88 31 130 -6 24 -260 283 -991 1015 -541 540 -988 982 -993 983 -49
5 -64 4 -91 -3z m1738 -2051 c-54 -61 -516 -517 -523 -517 -12 0 -1709 1697
-1709 1709 0 5 120 129 267 276 l266 266 858 -857 c830 -829 858 -859 841
-877z m-813 -639 c-9 -3 -31 -9 -50 -12 -19 -3 -45 -8 -59 -11 -14 -3 -191
-41 -395 -84 l-370 -79 -427 426 c-316 315 -425 430 -423 444 2 11 6 27 9 36
3 9 8 35 12 57 3 22 8 43 10 46 2 3 6 21 9 40 3 19 22 108 41 199 20 91 38
176 40 190 3 14 18 88 35 164 16 77 29 141 29 143 0 2 350 -347 778 -774 592
-592 774 -780 761 -785z m-2441 -1665 c-733 -733 -1336 -1333 -1339 -1333 -5
0 -673 664 -739 734 l-24 27 1334 1334 1335 1335 382 -382 383 -383 -1332
-1332z"/>
<path d="M6164 4909 c-45 -9 -72 -30 -93 -73 -34 -74 12 -168 90 -184 19 -4
192 -7 385 -6 328 1 354 2 385 20 81 47 89 159 16 218 l-38 30 -358 1 c-196 0
-371 -2 -387 -6z"/>
<path d="M1705 3406 c-26 -11 -911 -886 -1003 -991 -58 -65 -38 -165 41 -204
43 -21 87 -19 127 7 41 26 1000 990 1009 1015 41 107 -72 219 -174 173z"/>
</g>
</svg>
